<?xml version="1.0"?>
<svg xmlns="http://www.w3.org/2000/svg" xmlns:xlink="http://www.w3.org/1999/xlink" version="1.1" id="Layer_1" x="0px" y="0px" viewBox="0 0 512 512" style="enable-background:new 0 0 512 512;" xml:space="preserve" width="512px" height="512px" class=""><g><g>
	<g>
		<g>
			<path d="M437.334,447.998h-2.779l-25.16-82.06l-27.477-89.599l-27.473-89.598l-27.475-89.601L305.95,28.589     C298.706,4.959,284.959,0,274.704,0H237.3c-10.257,0-24.003,4.959-31.247,28.588l-21.019,68.553l-27.477,89.601     c0,0.001,0,0.002,0,0.003l-27.47,89.591c0,0.001-0.001,0.002-0.001,0.003l-27.476,89.599l-25.161,82.06h-2.779     c-17.647,0-32.003,14.355-32.003,32v21.334c0,5.892,4.776,10.668,10.668,10.668h405.333c5.892,0,10.668-4.776,10.668-10.668     v-21.334C469.334,462.353,454.979,447.998,437.334,447.998z M357.29,268.798H199.338l20.932-68.263h116.089L357.29,268.798z      M226.45,34.842c4.141-13.507,9.19-13.507,10.85-13.507h37.404c1.659,0,6.707,0,10.849,13.507L302.341,89.6h-92.681     L226.45,34.842z M203.118,110.935h105.764l20.933,68.266H226.813l10.192-33.234c1.727-5.633-1.44-11.599-7.072-13.326     c-5.629-1.727-11.599,1.439-13.326,7.072l-12.11,39.489h-22.313L203.118,110.935z M175.643,200.536h22.312l-20.933,68.263h-22.31     L175.643,200.536z M148.17,290.133h22.31l-2.334,7.607c-1.727,5.632,1.44,11.599,7.071,13.326     c1.042,0.32,2.096,0.471,3.132,0.471c4.563,0,8.788-2.953,10.195-7.543l4.251-13.861h171.036l20.933,68.264H127.237     L148.17,290.133z M120.696,379.733h270.611l20.933,68.265H99.763L120.696,379.733z M64.001,490.665v-10.667     c0-5.881,4.785-10.665,10.668-10.665h10.649c0.038,0,0.077,0.001,0.115,0h341.165c0.023,0,0.044,0.003,0.065,0.003     c0.025,0,0.048-0.003,0.07-0.003h10.598c5.882,0,10.665,4.784,10.665,10.665v10.667H64.001z" data-original="#000000" class="active-path" data-old_color="#000000" fill="#FFFFFF"/>
			<path d="M172.402,320.192c-5.637-1.715-11.597,1.459-13.313,7.095l-0.227,0.747c-1.719,5.637,1.457,11.597,7.093,13.314     c1.037,0.316,2.083,0.465,3.113,0.465c4.571,0,8.8-2.96,10.201-7.56l0.228-0.747C181.215,327.871,178.038,321.91,172.402,320.192     z" data-original="#000000" class="active-path" data-old_color="#000000" fill="#FFFFFF"/>
		</g>
	</g>
</g></g> </svg>
