<svg id="Layer_1" data-name="Layer 1" xmlns="http://www.w3.org/2000/svg" xmlns:xlink="http://www.w3.org/1999/xlink" viewBox="0 0 100 100"><defs><style>.cls-1,.cls-7,.cls-8{fill:none;}.cls-2,.cls-4{fill:#cb202d;}.cls-3{fill:#fff;}.cls-4,.cls-7,.cls-8{stroke:#fff;}.cls-4,.cls-7{stroke-miterlimit:10;stroke-width:4.12px;}.cls-5{fill:url(#New_Pattern_2);}.cls-6{fill:url(#New_Pattern_2-3);}.cls-8{stroke-linecap:round;stroke-linejoin:round;stroke-width:2.06px;}</style><pattern id="New_Pattern_2" data-name="New Pattern 2" width="3.08" height="3.08" patternTransform="matrix(1.88, 0.83, -0.83, 1.88, 52.54, 1.68)" patternUnits="userSpaceOnUse" viewBox="0 0 3.08 3.08"><rect class="cls-1" width="3.08" height="3.08"/><rect class="cls-2" width="1.54" height="1.54"/><rect class="cls-3" x="1.54" width="1.54" height="1.54"/><rect class="cls-3" y="1.54" width="1.54" height="1.54"/><rect class="cls-2" x="1.54" y="1.54" width="1.54" height="1.54"/></pattern><pattern id="New_Pattern_2-3" data-name="New Pattern 2" width="3.08" height="3.08" patternTransform="matrix(1.88, 0.83, -0.83, 1.88, 54.29, 0.55)" patternUnits="userSpaceOnUse" viewBox="0 0 3.08 3.08"><rect class="cls-1" width="3.08" height="3.08"/><rect class="cls-2" width="1.54" height="1.54"/><rect class="cls-3" x="1.54" width="1.54" height="1.54"/><rect class="cls-3" y="1.54" width="1.54" height="1.54"/><rect class="cls-2" x="1.54" y="1.54" width="1.54" height="1.54"/></pattern></defs><title>leftshoe</title><rect class="cls-4" x="21.22" y="23.63" width="30.69" height="25.65" transform="translate(-11.58 55.1) rotate(-66.09)"/><path class="cls-2" d="M52.85,49.62s3.92,6.74,9.76,7c3.71.19,7.77-.9,12.51,1.58,12.21,6.38,13.8,6.45,12,10.32.93,2.67-2.09,8.08-5.26,6.68L43,75.79,6,59.87,16.84,35.45l6.39,2.83a33.06,33.06,0,0,0,12.36,10C43.36,51.71,52.85,49.62,52.85,49.62Z"/><polygon class="cls-5" points="49.07 54.79 53.62 61.68 48.96 64.84 46.25 66.56 54.98 67.83 87.49 67.69 87.21 61.43 79.23 57.83 68.52 58.81 60.23 58.03 57.27 54.56 52.62 49.82 49.78 52.97 49.07 54.79"/><polygon class="cls-6" points="16.26 38.34 24.16 45.1 25.18 53.29 23.81 55.55 12.17 50.39 16.26 38.34"/><path class="cls-7" d="M52.85,49.62a49.78,49.78,0,0,0,7.31,7.24c2.91,2.41,10.73.66,15.83,1.6,12.79,2.34,12.93,6.22,11.18,10.09.93,2.67-2.09,8.08-5.26,6.68L40.35,75.1,6,59.87,16.84,35.45l6.39,2.83a33.06,33.06,0,0,0,12.36,10C43.36,51.71,52.85,49.62,52.85,49.62Z"/><path class="cls-7" d="M52.61,49.51C45.12,54,54.41,61,53.78,62.44c-.78,1.74-11,4.1-11,4.1"/><path class="cls-7" d="M15.08,40.28S28,44.67,22.4,57.51"/><path class="cls-4" d="M9.26,53.37l36.09,16L87,69.54a.77.77,0,1,0,.63-1.41l-42.28-.45L9.88,52A.77.77,0,1,0,9.26,53.37Z"/><line class="cls-7" x1="31.85" y1="37.89" x2="28.73" y2="44.92"/><line class="cls-7" x1="39.37" y1="20.91" x2="35.91" y2="28.71"/><line class="cls-7" x1="38.67" y1="40.91" x2="35.55" y2="47.94"/><line class="cls-7" x1="46.19" y1="23.94" x2="42.73" y2="31.74"/><polyline class="cls-8" points="31.62 29.99 32.43 36.27 37.09 32.42 43.5 35.26"/></svg>