<svg id="Layer_1" data-name="Layer 1" xmlns="http://www.w3.org/2000/svg" viewBox="0 0 100 100"><defs><style>.cls-1,.cls-2,.cls-4,.cls-5{fill:#cb202d;}.cls-2,.cls-3,.cls-4,.cls-5,.cls-6{stroke:#fff;stroke-miterlimit:10;}.cls-2,.cls-3{stroke-linecap:round;}.cls-2,.cls-3,.cls-4,.cls-6{stroke-width:4.42px;}.cls-3,.cls-6{fill:none;}.cls-5{stroke-width:2.21px;}</style></defs><title>leftshoe</title><path class="cls-1" d="M26.54,13,4.45,61.15l43.38,16.2L81,78.61c3.38,1.55,5.4-6.39,2.54-8.3,1.93-4.13,4.43-8.13-10.2-10.22-15.47-2.21-18.52-9.3-18.52-9.3l9.4-20.51Z"/><path class="cls-2" d="M9.45,50.25,4.61,60.8l21.22,9.74a196.66,196.66,0,0,1,18.82,7.22c1.46.63,7.17,0,8.83,0H82.2c4.42,0,4.42-6.62,2.21-6.62"/><polyline class="cls-2" points="49.56 23.12 26.7 12.64 13.08 42.34"/><path class="cls-3" d="M73.37,57.88c-13-7-18.36-7.44-18.36-7.44l3.54-7.72"/><path class="cls-4" d="M15.46,40.91c9.38,2.59,14,12.28,9,19-.54.73.76,1.74,1.3,1,5.65-7.62.52-18.47-10.13-21.41C14.6,39.21,14.44,40.63,15.46,40.91Z"/><circle class="cls-5" cx="51.86" cy="42.43" r="1.1"/><circle class="cls-5" cx="51.27" cy="54.32" r="1.1"/><circle class="cls-5" cx="55.19" cy="59.42" r="1.1"/><line class="cls-2" x1="15.55" y1="37.09" x2="30.78" y2="40.43"/><line class="cls-2" x1="21.66" y1="29.47" x2="30.94" y2="34.37"/><line class="cls-2" x1="22.48" y1="23.81" x2="37.62" y2="27.56"/><path class="cls-3" d="M43,60.58a27,27,0,0,0,4,2.67"/><path class="cls-3" d="M27.44,52a22.93,22.93,0,0,1,5.84,1.72,34.9,34.9,0,0,1,5.49,3.61"/><path class="cls-4" d="M7.86,53.85,49.07,68.93s9.31-.73,11,0,4.82,1.48,6.63,2.21c1.45.58,4.42,0,4.42,0H84.41"/><path class="cls-6" d="M49.79,68.66s2.19-4.61,3.54-4.75,5.83.7,7.24,2.11,5.54,4,7.28,4.32-1.58-10.79,1-12.45c1.11-.71,2.31,15.46,2.31,15.46"/><path class="cls-3" d="M68.23,58.53c2.46.21,15.84-2,17.92,3.39,1.16,3,.48,8-9.41,7.67"/><path class="cls-2" d="M17.34,42.05S10.28,55,22.49,60.56"/><path class="cls-3" d="M58.32,43.22s11.13-14.43,15-3.53-2.19,12.82-2.19,12.82"/></svg>