<svg id="Layer_1" data-name="Layer 1" xmlns="http://www.w3.org/2000/svg" viewBox="0 0 100 100"><defs><style>.cls-1,.cls-2,.cls-3{fill:#cb202d;}.cls-1,.cls-2,.cls-3,.cls-4,.cls-5{stroke:#fff;stroke-miterlimit:10;}.cls-1,.cls-3,.cls-4,.cls-5{stroke-width:4.37px;}.cls-2{stroke-width:2.18px;}.cls-3,.cls-4{stroke-linecap:round;}.cls-4,.cls-5{fill:none;}</style></defs><title>leftshoe</title><path class="cls-1" d="M26.05,13.46,4.72,61.34,41,77.5l39.84.27c3.36,1.5,6.57-4.24,5.58-7.08,1.87-4.1-2.77-10.78-11.51-10.78-6.55,0-11.94,2.51-15.23-1.58a50.13,50.13,0,0,1-5.24-7.79l9.08-20.38Z"/><path class="cls-1" d="M15.24,41.55c9.3,2.46,14,12,9.11,18.68-.53.73.76,1.71,1.29,1,5.5-7.59.32-18.27-10.25-21.06C14.37,39.88,14.23,41.28,15.24,41.55Z"/><circle class="cls-2" cx="51.26" cy="42.66" r="1.09"/><circle class="cls-2" cx="50.8" cy="54.42" r="1.09"/><circle class="cls-2" cx="54.73" cy="59.42" r="1.09"/><line class="cls-3" x1="15.28" y1="37.77" x2="30.39" y2="40.9"/><line class="cls-3" x1="21.24" y1="30.17" x2="30.48" y2="34.91"/><line class="cls-3" x1="22" y1="24.56" x2="37.01" y2="28.11"/><path class="cls-4" d="M42.71,60.7a26.34,26.34,0,0,0,4,2.6"/><path class="cls-4" d="M27.2,52.41A22.14,22.14,0,0,1,33,54.05a34.51,34.51,0,0,1,5.47,3.5"/><path class="cls-5" d="M7.86,54.43,42.71,70l10.36.89s4.84-.7,6.56,0,4.37,2.18,6.55,0c1.09-1.09,6.56,0,6.56,0l13.22.9"/><path class="cls-5" d="M50.89,70.84s.85-6.41,2.18-6.56,9.2,1.87,10.93,2.19,6.13-1.24,6.55,0a46,46,0,0,0,2.19,4.37"/></svg>