<svg id="Layer_1" data-name="Layer 1" xmlns="http://www.w3.org/2000/svg" viewBox="0 0 415.49 169.03"><defs><style>.cls-1{fill:#e0e0e0;}.cls-2{fill:#fff;}</style></defs><title>logo</title><path class="cls-1" d="M17.48,148.67H11.2L10,135.19H16.3Zm380.55,0h6.29l1.2-13.48h-6.29ZM6.29,135.19H0l1.2,13.48H7.5ZM408,148.67h6.29l1.2-13.48h-6.29ZM49.29,152a8.48,8.48,0,0,1-8.15,8.81h-.39a8.64,8.64,0,0,1-8.59-8.69v-.32c0-4.77,3.41-8.82,8.5-8.82a8.64,8.64,0,0,1,8.64,8.66V152m-26.69,0c0,9.48,7.68,17.08,18,17.08s18.15-7.69,18.15-17.18v-.09c0-9.49-7.68-17.08-18-17.08s-18.15,7.69-18.15,17.18V152m42,16.42h9.31v-11.8H89.79V149H73.9v-5.62H91.47v-8H64.59v33Zm32.3,0h9.31v-11.8h15.89V149h-15.9v-5.62h17.57v-8H96.89v33Zm53.09,0h9.31v-25h10.08v-8H139.9v8H150v25Zm25.51,0h9.31V155.82h12v12.55h9.31v-33h-9.31v12.36h-12V135.34h-9.31v33Zm36.89,0h27.27v-7.79H221.6v-5.24h16.13v-7.22H221.6v-5h17.81v-7.79h-27v33Zm52.85.24h8.11l6.72-19,6.77,19H295l11.23-33.27h-9.65l-5.86,19.11-6.48-19.21h-8l-6.48,19.21-5.86-19.11H254Zm51.84-13.26,3.79-9.39,3.74,9.39h-7.53Zm-14.93,13H312l2.4-5.9h13l2.45,5.9h10l-14.3-33.27h-9Zm42,0h25.59v-8H353.5v-25h-9.31v33Zm30.77,0h25.59v-8H384.27v-25H375v33Z" transform="translate(-0.01)"/><path class="cls-2" d="M360.21,52.23H342.15c-1.75-4.44-3.71-7.89-13.83-7.89-7,0-10,2.88-10,5.77,0,3.16,2.49,5.82,10.2,7.53L344.88,62c10.71,2.86,15.9,11.36,15.9,20.34,0,5-1.08,11-5.82,16-3.54,3.69-8.9,8.56-26.67,8.56-24.44,0-32.47-15.45-32.47-24.78h19c1.87,6.82,6.55,9.41,15.81,9.41,6.42,0,11.93-2.29,11.93-7.2,0-4.67-4-6.43-9.15-7.84L320.48,73c-6.23-1.9-11.44-3.42-15.12-6.53-9.63-8.16-8.93-22.89,1.54-30.55,5.8-4.24,11.74-6.45,21.17-6.45,11.08,0,17.41,3.16,22.39,6.6,4.42,3,9.67,10.38,9.67,16.2M55.13,0c.15.65,37.8,106,37.8,106H115.4L150,18.34H365L366.64,0H133.54L104.82,72.68,79,0H55.18M241,68.09,269.07,106h17.56V31.05H266.41V71.8L241,31.05h-19.4V106H241V68.09Zm126.35,34a2.83,2.83,0,1,0,.05,0v0Zm-.46,0A2.58,2.58,0,1,1,367,102v.09Zm-1.62-.83a1.44,1.44,0,0,0-1.44-1.42l-.22,0h-1.88v4.24h.94v-1.36h.74l.9,1.36h1.09l-1-1.52a1.32,1.32,0,0,0,.92-1.32Zm-.95,0a.63.63,0,0,1-.61.63h-1.05v-1.24h.91a.64.64,0,0,1,.78.44,1.11,1.11,0,0,1,0,.19ZM134,106h21.55l4-11.72h28.53L192.22,106h21.22L186.28,31.05H163.43Zm31.6-25.28L174,55.79,182.2,80.7H165.61Z" transform="translate(-0.01)"/></svg>