<svg id="OBJECTS" xmlns="http://www.w3.org/2000/svg" viewBox="0 0 213.93 292.6"><defs><style>.cls-1,.cls-2{fill:none;stroke:#1d262d;}.cls-1{stroke-miterlimit:10;}.cls-2{stroke-linecap:round;stroke-linejoin:round;stroke-width:0.75px;}</style></defs><title>shoe</title><path class="cls-1" d="M436.46,239.36,436,237A9.59,9.59,0,0,0,436.46,239.36Z" transform="translate(-290.81 -99.13)"/><path class="cls-1" d="M455.65,237.17l-.11-2.38-2.34-48.73a14.39,14.39,0,0,0-.2-1.72,13.08,13.08,0,1,0-25.73,4.7L436,237l.43,2.33a9.84,9.84,0,0,0,18.83-.2A9.92,9.92,0,0,0,455.65,237.17Z" transform="translate(-290.81 -99.13)"/><path class="cls-1" d="M489.25,254.3l-36.89-25c-.8-.52-1.41-1-2-1.34a9.46,9.46,0,0,0-10.43.87,9.84,9.84,0,0,0-2,13.77,9.12,9.12,0,0,0,2.49,2.32L442.6,246l39.89,19.88a6.72,6.72,0,0,0,6.76-11.58Z" transform="translate(-290.81 -99.13)"/><path class="cls-1" d="M427,189a13.21,13.21,0,0,1,26-4.62,14.39,14.39,0,0,1,.2,1.72l1.4,29.2-22.21,1.82Z" transform="translate(-290.81 -99.13)"/><path class="cls-1" d="M436,237l.43,2.33A9.59,9.59,0,0,1,436,237Z" transform="translate(-290.81 -99.13)"/><path class="cls-1" d="M488.34,256.08c1.48.66,2.81,1.33,4.17,2.05s2.68,1.46,4,2.25a58.16,58.16,0,0,1,7.44,5.28.85.85,0,0,1-1,1.4h0a55.67,55.67,0,0,0-8-3.56c-1.36-.49-2.74-.95-4.13-1.36s-2.81-.8-4.14-1.1h0a2.62,2.62,0,0,1,1.14-5.12A2.56,2.56,0,0,1,488.34,256.08Z" transform="translate(-290.81 -99.13)"/><path class="cls-1" d="M482.62,260.24l12.43,14a.86.86,0,0,1-1.16,1.25l-14.82-11.39a2.62,2.62,0,0,1,3.19-4.16A2.33,2.33,0,0,1,482.62,260.24Z" transform="translate(-290.81 -99.13)"/><path class="cls-1" d="M487.23,260.65l13,13.05,0,0A.86.86,0,0,1,499.2,275l-15.37-10.42a2.63,2.63,0,1,1,2.95-4.35,2.89,2.89,0,0,1,.37.31Z" transform="translate(-290.81 -99.13)"/><path class="cls-1" d="M491.89,260.65c.69.8,1.6,1.68,2.46,2.49s1.78,1.63,2.7,2.42q2.77,2.35,5.78,4.53a.86.86,0,0,1-.83,1.49c-2.32-.95-4.6-2-6.86-3.14q-1.69-.85-3.36-1.8c-1.13-.65-2.18-1.26-3.35-2.08h0a2.63,2.63,0,1,1,3-4.32A2.78,2.78,0,0,1,491.89,260.65Z" transform="translate(-290.81 -99.13)"/><path class="cls-1" d="M484.91,252c1.19.27,2.29.56,3.42.87s2.23.63,3.33,1q3.31,1,6.54,2.28a.86.86,0,0,1-.41,1.66h0c-2.24-.26-4.48-.43-6.71-.53-1.12,0-2.24-.07-3.36-.08s-2.25,0-3.3,0a2.64,2.64,0,0,1-.19-5.27,3,3,0,0,1,.67.06Z" transform="translate(-290.81 -99.13)"/><path class="cls-1" d="M489.12,261.64h0a6.75,6.75,0,0,1-9.06,3h0a6.76,6.76,0,0,1-3-9.06h0a6.76,6.76,0,0,1,9.07-3h0A6.74,6.74,0,0,1,489.12,261.64Z" transform="translate(-290.81 -99.13)"/><path class="cls-1" d="M495.29,268.86a.34.34,0,0,1-.17-.05l-6.06-3.94a.31.31,0,0,1,.34-.53l6.06,3.94a.32.32,0,0,1,.09.44A.31.31,0,0,1,495.29,268.86Z" transform="translate(-290.81 -99.13)"/><path class="cls-1" d="M495.76,264.77a.24.24,0,0,1-.15,0l-5-2.71a.32.32,0,0,1,.3-.56l5,2.72a.31.31,0,0,1-.14.59Z" transform="translate(-290.81 -99.13)"/><path class="cls-1" d="M490.86,269.61a.35.35,0,0,1-.18-.05l-3.5-2.44a.32.32,0,0,1,.36-.52L491,269a.32.32,0,0,1,.07.44A.29.29,0,0,1,490.86,269.61Z" transform="translate(-290.81 -99.13)"/><path class="cls-1" d="M443.51,173.9l-67.78-19.75a8.83,8.83,0,0,0-11,6.33l-16.47,64.85,69.93,33,31.27-73.13A8.83,8.83,0,0,0,443.51,173.9Z" transform="translate(-290.81 -99.13)"/><path class="cls-1" d="M409.88,358.62h0a9.39,9.39,0,0,0-9.37,9.39v23.13h34.14a1.73,1.73,0,0,0,1-3.14l-16.38-9.78V368A9.39,9.39,0,0,0,409.88,358.62Z" transform="translate(-290.81 -99.13)"/><path class="cls-1" d="M400.63,388.47H435.7a.38.38,0,0,0,0-.75H400.63a.38.38,0,0,0,0,.75Z" transform="translate(-290.81 -99.13)"/><path class="cls-1" d="M401.22,380.61a6.16,6.16,0,0,1,7.29,7.2c-.08.47.64.68.72.2a6.92,6.92,0,0,0-8.21-8.13c-.47.1-.27.82.2.73Z" transform="translate(-290.81 -99.13)"/><path class="cls-1" d="M419.27,372.21h-4.36a.38.38,0,0,0,0,.75h4.36a.38.38,0,0,0,0-.75Z" transform="translate(-290.81 -99.13)"/><path class="cls-1" d="M419.27,374.31h-4.36a.38.38,0,0,0,0,.75h4.36a.38.38,0,0,0,0-.75Z" transform="translate(-290.81 -99.13)"/><path class="cls-1" d="M419.27,376.4h-4.36a.38.38,0,0,0,0,.75h4.36a.38.38,0,0,0,0-.75Z" transform="translate(-290.81 -99.13)"/><path class="cls-1" d="M408.93,384.61c2.8-1.31,5.36.83,8.13,1a8.07,8.07,0,0,0,5.21-1.61c.39-.27,0-.93-.38-.65-2.89,2.05-5.4,1.47-8.5.53a6.29,6.29,0,0,0-4.84.1c-.44.2-.06.85.38.64Z" transform="translate(-290.81 -99.13)"/><path class="cls-1" d="M426.27,382.8c.06,1.67-.11,3.35,0,5a.38.38,0,0,0,.75,0c-.07-1.67.1-3.35,0-5,0-.48-.77-.49-.75,0Z" transform="translate(-290.81 -99.13)"/><path class="cls-1" d="M366.4,353l-10.28-2.69L337.6,382.8l17,8.43h25a1.74,1.74,0,0,0,1-3.14l-16.38-9.77Z" transform="translate(-290.81 -99.13)"/><path class="cls-1" d="M345.51,363.77,395,271a16.28,16.28,0,1,1,28.89,15,17,17,0,0,1-1.3,2.09L367.1,372.5Z" transform="translate(-290.81 -99.13)"/><path class="cls-1" d="M371.92,365.91a.35.35,0,0,1-.14,0l-22-10a.33.33,0,0,1,.27-.6l22,10a.33.33,0,0,1-.13.63Z" transform="translate(-290.81 -99.13)"/><path class="cls-1" d="M375.66,223.74l68.74,45.14a16.07,16.07,0,0,1-15,28.26l-75.84-31.81a23.66,23.66,0,0,1,18.3-43.64A24.67,24.67,0,0,1,375.66,223.74Z" transform="translate(-290.81 -99.13)"/><path class="cls-1" d="M396.7,372.47l23-93.68a16.28,16.28,0,1,1,31.71,7.38,17.69,17.69,0,0,1-.73,2.34l-29.83,84Z" transform="translate(-290.81 -99.13)"/><path class="cls-1" d="M339.59,379.75l10.35,5.39c1.72.9,3.45,1.78,5.17,2.69a19.57,19.57,0,0,0,3.85,1.94,14.08,14.08,0,0,0,4.3.06c1.74-.07,3.48-.06,5.23-.09l12.14-.18a.38.38,0,0,0,0-.75l-10.69.16c-1.8,0-3.6,0-5.4.08a19.57,19.57,0,0,1-5.3-.1c-3.2-.81-6.42-3.16-9.35-4.68L340,379.11c-.43-.23-.81.42-.38.64Z" transform="translate(-290.81 -99.13)"/><path class="cls-1" d="M343.74,373.05a6.17,6.17,0,0,1,3.11,9.83c-.29.39.36.76.65.38a6.93,6.93,0,0,0-3.56-10.93.37.37,0,0,0-.2.72Z" transform="translate(-290.81 -99.13)"/><path class="cls-1" d="M364.72,372.25l-4.34-.37c-.48,0-.48.71,0,.75l4.34.37c.48,0,.48-.71,0-.75Z" transform="translate(-290.81 -99.13)"/><path class="cls-1" d="M364.54,374.33,360.2,374c-.48,0-.48.71,0,.75l4.34.37c.48.05.48-.7,0-.75Z" transform="translate(-290.81 -99.13)"/><path class="cls-1" d="M364.36,376.42l-4.34-.37c-.48,0-.48.71,0,.75l4.34.37c.49,0,.48-.71,0-.75Z" transform="translate(-290.81 -99.13)"/><path class="cls-1" d="M348.72,380.17c3.21.13,4.55,3.43,7.1,4.8a8.15,8.15,0,0,0,5.13.79c.48-.06.27-.79-.2-.72-3.61.49-5.56-1.46-8-3.73a6,6,0,0,0-4.06-1.89c-.48,0-.48.73,0,.75Z" transform="translate(-290.81 -99.13)"/><path class="cls-1" d="M369.7,382.25c0,2.23,0,4.47,0,6.7a.38.38,0,0,0,.75,0c0-2.23,0-4.47,0-6.7a.38.38,0,0,0-.75,0Z" transform="translate(-290.81 -99.13)"/><path class="cls-1" d="M423.37,365H398.76a.33.33,0,0,1,0-.66h24.61a.33.33,0,0,1,0,.66Z" transform="translate(-290.81 -99.13)"/><path class="cls-1" d="M412.2,365.06l-.11,0a.38.38,0,0,1-.25-.47l21-69.47a14.82,14.82,0,0,0-7.5-17.52l-48-24.21a39.34,39.34,0,0,1-21.3-31.69.36.36,0,0,1,.34-.4.36.36,0,0,1,.4.34,38.59,38.59,0,0,0,20.9,31.08l48,24.21a15.56,15.56,0,0,1,7.88,18.41l-21,69.47A.36.36,0,0,1,412.2,365.06Z" transform="translate(-290.81 -99.13)"/><path class="cls-1" d="M417.57,365.06l-.11,0a.38.38,0,0,1-.25-.47l21.6-72.17a14.82,14.82,0,0,0-7.5-17.52l-48-24.21a39,39,0,0,1-21.18-30.39.38.38,0,0,1,.33-.42.37.37,0,0,1,.41.33A38.27,38.27,0,0,0,383.68,250l48,24.21a15.56,15.56,0,0,1,7.87,18.41l-21.59,72.17A.38.38,0,0,1,417.57,365.06Z" transform="translate(-290.81 -99.13)"/><path class="cls-1" d="M360.38,361a.46.46,0,0,1-.2-.05.38.38,0,0,1-.12-.52L404.15,287a.37.37,0,1,1,.64.39L360.7,360.77A.37.37,0,0,1,360.38,361Z" transform="translate(-290.81 -99.13)"/><path class="cls-1" d="M354.16,122.17c-.2-.13-.39-.27-.59-.42a8.91,8.91,0,0,1-1.72-12.46c1.66-2.19,4-3,6.64-3.33,2.39-.28,4-1.53,5.95-2.74a34.27,34.27,0,0,1,3.89-2.15,14.31,14.31,0,0,1,8.78-1.18,11.06,11.06,0,0,1,3.78,1.44c4.52,2.53,5.76,7.27,6.3,12,3.89-3.06,8.52-5.85,13.88-3.72,10.07,4,9.34,14.34,9,18.76,0,.45-.07,1-.1,1.52a8.9,8.9,0,0,1-10.66,13.82c-5.4-2.69-6.82-7.55-7.09-11.68-4,2.9-8.71,5.1-14,3.24-6.37-2.26-7.73-8.71-8.29-14.33C366.05,123.52,360.1,126.22,354.16,122.17Z" transform="translate(-290.81 -99.13)"/><path class="cls-1" d="M432.75,141.92c-.28,11.43-8.93,20.48-20,20.21S388.84,148.3,389.63,140c1.09-11.37,13.09-19.54,24.15-19.27S433,130.5,432.75,141.92Z" transform="translate(-290.81 -99.13)"/><path class="cls-1" d="M407.15,174.39h0a8.79,8.79,0,0,0,11.1-5.57l7.28-21.91A8.77,8.77,0,0,0,420,135.82h0a8.78,8.78,0,0,0-11.1,5.56l-7.28,21.91A8.78,8.78,0,0,0,407.15,174.39Z" transform="translate(-290.81 -99.13)"/><path class="cls-1" d="M415.89,148.07s7.09,6.5,5.57,11.1l-3.21,9.65-10.08-13.17Z" transform="translate(-290.81 -99.13)"/><path class="cls-1" d="M392.72,132.28a22.39,22.39,0,0,1,17.53-11c.69,0,.69-1.14,0-1.08a23.52,23.52,0,0,0-18.47,11.49.54.54,0,0,0,.94.55Z" transform="translate(-290.81 -99.13)"/><path class="cls-1" d="M345.8,212.94l1.61-1.74A9.87,9.87,0,0,1,345.8,212.94Z" transform="translate(-290.81 -99.13)"/><path class="cls-1" d="M330.79,200.77l1.37-1.94L360.32,159a14,14,0,0,1,1.09-1.35,13.08,13.08,0,0,1,19.18,17.79L347.41,211.2l-1.61,1.74A9.84,9.84,0,0,1,330,202.65,10.74,10.74,0,0,1,330.79,200.77Z" transform="translate(-290.81 -99.13)"/><path class="cls-1" d="M305.08,237.16l25.71-36.39c.57-.76,1-1.43,1.37-1.94A9.47,9.47,0,0,1,342.22,196a9.84,9.84,0,0,1,6.7,12.2,8.85,8.85,0,0,1-1.51,3l-1.61,1.74-30.3,32.67a6.72,6.72,0,0,1-10.42-8.45Z" transform="translate(-290.81 -99.13)"/><path class="cls-1" d="M317.17,243.09a6.85,6.85,0,0,0-11-7.47,2,2,0,0,0-.23.18L292,248.7a.87.87,0,0,0,1.05,1.37l5.78-3.61-7.31,7.62a.88.88,0,0,0-.08,1.11.87.87,0,0,0,1.21.2h0l6.3-4.47c-.05.08-.11.15-.17.23q-2.28,3.09-4.3,6.33a.87.87,0,0,0,1.35,1.08c1.78-1.75,3.63-3.42,5.52-5,.45-.38.92-.73,1.38-1.1l-4,6.86a.87.87,0,0,0,1.4,1h0l10.61-12c-.05.23-.09.46-.13.69-.48,2.22-1,4.43-1.67,6.63h0a.87.87,0,0,0,1.58.69c1.21-2,2.34-4.06,3.4-6.15.53-1,1-2.11,1.54-3.17s1-2.13,1.45-3.27v0A2.76,2.76,0,0,0,317.17,243.09Z" transform="translate(-290.81 -99.13)"/><path class="cls-1" d="M380.86,175.51a13.21,13.21,0,0,0-19.45-17.87,14,14,0,0,0-1.09,1.35l-16.87,23.87,18,13.55Z" transform="translate(-290.81 -99.13)"/><path class="cls-1" d="M347.41,211.2l-1.61,1.74A9.87,9.87,0,0,0,347.41,211.2Z" transform="translate(-290.81 -99.13)"/><path class="cls-1" d="M433.4,223l-.13,0a.33.33,0,0,1-.17-.43l11.59-27.09a.33.33,0,0,1,.43-.18.33.33,0,0,1,.17.43L433.7,222.76A.31.31,0,0,1,433.4,223Z" transform="translate(-290.81 -99.13)"/><path class="cls-1" d="M353.42,205.47a.4.4,0,0,1-.23-.08.33.33,0,0,1,0-.47l23.12-25a.32.32,0,0,1,.46,0,.33.33,0,0,1,0,.46l-23.12,25.05A.34.34,0,0,1,353.42,205.47Z" transform="translate(-290.81 -99.13)"/><path class="cls-1" d="M409.78,178a12,12,0,0,1-12-12,11.77,11.77,0,0,1,1.14-5.1.35.35,0,1,1,.63.3,11.15,11.15,0,0,0-1.07,4.8,11.28,11.28,0,0,0,22.48,1.4.35.35,0,1,1,.69.09A12,12,0,0,1,409.78,178Z" transform="translate(-290.81 -99.13)"/><path class="cls-2" d="M332.44,181.92" transform="translate(-290.81 -99.13)"/></svg>