<svg id="Layer_1" data-name="Layer 1" xmlns="http://www.w3.org/2000/svg" viewBox="0 0 150 250"><defs><style>.cls-1,.cls-2{fill:#cb202d;}.cls-1{stroke:#fff;stroke-miterlimit:10;stroke-width:3.88px;}.cls-3{fill:#fff;}</style></defs><title>Skate- deco</title><path class="cls-1" d="M86.36,132a19.33,19.33,0,0,0,.69,3.86,19.1,19.1,0,0,0,36.55.39l.84-4.52L131.5,93l.06-.33,9.88-54.09a25.44,25.44,0,0,0-14.89-27.89.07.07,0,0,0-.06,0c-.68-.29-1.39-.54-2.11-.78A23.68,23.68,0,0,0,121,9,25.39,25.39,0,0,0,91.5,29.46a29,29,0,0,0-.39,3.34L88.39,89.47l-1.82,37.9Z"/><path class="cls-1" d="M42.71,198.35l44.46-74.5c1-1.53,1.74-2.87,2.47-3.89,4.13-5.78,11.86-8.3,19.23-6.55a19.1,19.1,0,0,1,14.16,23,17.47,17.47,0,0,1-2.62,6l-3,3.52L60.52,210.71c-4.13,4.94-8.81,5.71-14.4,2.17C40,209,38.85,204.44,42.71,198.35Z"/><path class="cls-2" d="M24.07,243.32a3.54,3.54,0,0,1-3.15-1.82,4,4,0,0,1-.32-.7c-1,.81-3,2.25-4.9,2.26a3.53,3.53,0,0,1-3.14-1.82,3.63,3.63,0,0,1-.4-2.8A6,6,0,0,1,9.9,239h0A3.61,3.61,0,0,1,6.65,237c-1.22-2.24.15-4.51,2.16-6.2a3.61,3.61,0,0,1-2-1.81c-1.47-2.92,1.36-5.7,4.29-7.23l9.84-7.38a3.41,3.41,0,0,1-2.32-2.27c-1-3,1.95-5.43,4.87-6.67l13.45-8.29s.65-.4,1-.64a11,11,0,0,1,4.15-2,2.2,2.2,0,0,1,.37-.07l2.14-.17h.22a16.35,16.35,0,0,1,11.52,6c3.2,3.79,5,10,3.85,13.3-1,2.85-1.44,3.54-5.39,6.88L29.42,240.69C28.81,241.25,26.4,243.32,24.07,243.32Z"/><path class="cls-3" d="M44.75,196.27a14.36,14.36,0,0,1,10.1,5.36c3,3.53,4.32,9.05,3.5,11.4s-.93,2.75-4.81,6L28.15,239.22s-2.31,2.16-4.08,2.16a1.61,1.61,0,0,1-1.47-.86c-1.32-2.25,3.1-5.13,3.1-5.13l9.8-8.92L19.78,238.93s-2.31,2.18-4.08,2.18a1.59,1.59,0,0,1-1.46-.85c-1.32-2.25,3.11-5.13,3.11-5.13l12-10.94L14,235s-2.34,2-4.12,2a1.63,1.63,0,0,1-1.54-.9c-1.25-2.28,3.35-4.93,3.35-4.93l11.64-9.49-9,5.69s-2.32,1.76-4.1,1.76a1.72,1.72,0,0,1-1.66-1c-1.15-2.3,3.59-4.71,3.59-4.71L32,208.58l-7,3.09a7,7,0,0,1-2.91,1,1.54,1.54,0,0,1-1.61-1.1c-.82-2.37,3.92-4.31,3.92-4.31L38,198.84s.71-.45,1.07-.7a9.12,9.12,0,0,1,3.56-1.68h0l2.14-.18m0-3.88h-.32l-2.14.18a3.39,3.39,0,0,0-.72.13,13.15,13.15,0,0,0-4.74,2.23c-.32.23-.93.61-.93.61l-13.3,8.2c-4.73,2-7,5.56-5.81,9a5.34,5.34,0,0,0,.88,1.65l-7.61,5.7c-4.75,2.54-6.7,6.33-5,9.75a6,6,0,0,0,.78,1.17c-1.73,2.22-2.11,4.68-.9,6.9a5.49,5.49,0,0,0,5,2.93l.41,0a5.67,5.67,0,0,0,.58,1.35A5.46,5.46,0,0,0,15.7,245a8.66,8.66,0,0,0,4.37-1.42,5.43,5.43,0,0,0,4,1.68c2.92,0,5.66-2.23,6.61-3.09L56,222.11l.1-.08c4-3.41,4.81-4.41,5.93-7.63l0-.09c1.37-3.92-.55-10.88-4.2-15.19a18.28,18.28,0,0,0-12.93-6.73Z"/></svg>