<svg id="Layer_1" data-name="Layer 1" xmlns="http://www.w3.org/2000/svg" viewBox="0 0 250 200"><defs><style>.cls-1{fill:#fff;stroke:#cb202d;stroke-miterlimit:10;stroke-width:4.12px;}</style></defs><title>Skate- deco</title><path class="cls-1" d="M218.44,129.81a23.71,23.71,0,0,1,3.12,11.81,24,24,0,0,1-44.33,12.74A98,98,0,0,1,57.06,141.22a38.82,38.82,0,0,1-29.54-71A38.54,38.54,0,0,1,47.07,64.9a39.2,39.2,0,0,1,9.57,1.18c-.07-.83-.1-1.67-.1-2.51a32.65,32.65,0,0,1,51.55-26.64,27.11,27.11,0,0,1,36.41,24.5,51.86,51.86,0,1,1,73.94,68.38Z"/></svg>