<svg id="Layer_1" data-name="Layer 1" xmlns="http://www.w3.org/2000/svg" xmlns:xlink="http://www.w3.org/1999/xlink" viewBox="0 0 100 100"><defs><style>.cls-1,.cls-7,.cls-8{fill:none;}.cls-2,.cls-4{fill:#cb202d;}.cls-3{fill:#fff;}.cls-4,.cls-7,.cls-8{stroke:#fff;}.cls-4,.cls-7{stroke-miterlimit:10;stroke-width:4.14px;}.cls-5{fill:url(#New_Pattern_2);}.cls-6{fill:url(#New_Pattern_2-3);}.cls-8{stroke-linecap:round;stroke-linejoin:round;stroke-width:2.07px;}</style><pattern id="New_Pattern_2" data-name="New Pattern 2" width="3.08" height="3.08" patternTransform="translate(-159.42 -137.13) scale(2.07)" patternUnits="userSpaceOnUse" viewBox="0 0 3.08 3.08"><rect class="cls-1" width="3.08" height="3.08"/><rect class="cls-2" width="1.54" height="1.54"/><rect class="cls-3" x="1.54" width="1.54" height="1.54"/><rect class="cls-3" y="1.54" width="1.54" height="1.54"/><rect class="cls-2" x="1.54" y="1.54" width="1.54" height="1.54"/></pattern><pattern id="New_Pattern_2-3" data-name="New Pattern 2" width="3.08" height="3.08" patternTransform="translate(-158.27 -138.87) scale(2.07)" patternUnits="userSpaceOnUse" viewBox="0 0 3.08 3.08"><rect class="cls-1" width="3.08" height="3.08"/><rect class="cls-2" width="1.54" height="1.54"/><rect class="cls-3" x="1.54" width="1.54" height="1.54"/><rect class="cls-3" y="1.54" width="1.54" height="1.54"/><rect class="cls-2" x="1.54" y="1.54" width="1.54" height="1.54"/></pattern></defs><title>Skate- deco</title><rect class="cls-4" x="14.82" y="25.3" width="25.78" height="30.86"/><path class="cls-2" d="M48.05,46.19S59,55.05,72.79,55.94s17.46,6.21,17.43,10.48c2,2.07,1.38,8.28-2.11,8.28H9.18V47.84h7A33.29,33.29,0,0,0,31.63,52C40.17,52,48.05,46.19,48.05,46.19Z"/><polygon class="cls-5" points="46.68 52.48 53.66 56.97 50.67 61.76 48.88 64.45 59.1 65.85 90.17 65.5 87.36 59.86 76.88 56.02 64.08 53.71 54.12 48.93 47.91 46.47 46.59 50.52 46.68 52.48"/><polygon class="cls-6" points="9.82 50.74 19.83 53.73 24.11 60.84 23.77 63.48 10.97 63.48 9.82 50.74"/><path class="cls-7" d="M48.05,46.19S59,55.05,72.79,55.94s17.46,6.21,17.43,10.48c2,2.07,1.38,8.28-2.11,8.28H9.18V47.84h7A33.29,33.29,0,0,0,31.63,52C40.17,52,48.05,46.19,48.05,46.19Z"/><path class="cls-7" d="M47.78,46.19c-5,7.2,6.34,9.83,6.34,11.4,0,1.92-8.43,8.26-8.43,8.26"/><path class="cls-7" d="M9.53,53s13.61-1.21,13.74,12.85"/><path class="cls-4" d="M9.51,67.4h81a.78.78,0,1,0,0-1.55h-81A.78.78,0,1,0,9.51,67.4Z"/><line class="cls-7" x1="23.96" y1="43.97" x2="23.96" y2="51.7"/><line class="cls-7" x1="23.96" y1="25.3" x2="23.96" y2="33.88"/><line class="cls-7" x1="31.46" y1="43.97" x2="31.46" y2="51.7"/><line class="cls-7" x1="31.46" y1="25.3" x2="31.46" y2="33.88"/><polyline class="cls-8" points="20.53 36.81 23.84 42.24 26.55 36.81 33.59 36.81"/></svg>