<svg id="Layer_1" data-name="Layer 1" xmlns="http://www.w3.org/2000/svg" viewBox="0 0 250 200"><defs><style>.cls-1{fill:#cb202d;stroke:#fff;stroke-linejoin:round;stroke-width:4.12px;}.cls-2{fill:#fff;}</style></defs><title>Skate- deco</title><polygon class="cls-1" points="225.53 83.85 136.17 75.95 20 88.32 105.24 97.94 225.53 83.85"/><polygon class="cls-1" points="23.11 112.27 23.11 155.34 105.24 190.05 225.53 151.16 227.23 102.63 23.11 112.27"/><polygon class="cls-1" points="20 88.32 105.24 97.94 105.24 127.5 20 111.69 20 88.32"/><polygon class="cls-1" points="230 102.07 105.24 127.5 105.24 97.94 225.53 83.85 230 102.07"/><line class="cls-1" x1="105.24" y1="127.5" x2="105.24" y2="190.05"/><path class="cls-2" d="M209.48,132.5l-5.63,1.32c-.55-1.1-1.16-1.91-4.31-1.18-2.18.51-3.12,1.53-3.12,2.34s.78,1.44,3.18,1.35h5.1c3.34,0,5,1.94,5,4.4a7.26,7.26,0,0,1-1.81,4.86c-1.1,1.29-2.77,3.06-8.31,4.48-7.62,2-10.12-1.77-10.12-4.4l5.92-1.46c.58,1.76,2,2.12,4.93,1.4,2-.5,3.71-1.56,3.71-2.92s-1.24-1.48-2.85-1.48h-4c-1.94-.06-3.56-.09-4.71-.69-3-1.58-2.78-5.79.48-8.7a13.69,13.69,0,0,1,6.6-3.3,11.11,11.11,0,0,1,7,.24c1.37.51,3,2.16,3,3.76m-95,6c0,.2,11.78,30,11.78,30l7-1.79L144,137.73l67-14.87.51-5.13-72.65,15.6-9,24.13-8-20.48-7.43,1.59m57.91,7.25,8.75,8.72,5.47-1.4V131.89l-6.3,1.42V145l-7.92-9.86-6,1.37v21.85l6-1.55Zm39.38-.19a1.12,1.12,0,0,0-.87,1c0,.43.4.67.89.54a1.16,1.16,0,0,0,.87-1c0-.42-.39-.67-.87-.55h0Zm-.14,0a.88.88,0,0,1-1.13.16c-.27-.24-.21-.7.14-1a.91.91,0,0,1,1.13-.16.7.7,0,0,1-.11,1v0Zm-.51-.1c0-.21-.2-.33-.45-.27l-.06,0-.59.14v1.17l.29-.08v-.37l.23-.06.28.3.34-.08-.31-.34a.5.5,0,0,0,.29-.44Zm-.29.08a.27.27,0,0,1-.19.22l-.33.08v-.34l.28-.07c.11-.05.22,0,.25.06v0ZM139,165.31l6.71-1.71,1.25-3.83,8.89-2.23,1.29,3.13,6.61-1.69-8.46-20-7.12,1.61Zm9.85-10.06,2.61-8.05L154,154l-5.17,1.28Z"/></svg>