<svg id="Layer_1" data-name="Layer 1" xmlns="http://www.w3.org/2000/svg" viewBox="0 0 100 100"><defs><style>.cls-1,.cls-2,.cls-3{fill:#cb202d;}.cls-1,.cls-2,.cls-3,.cls-4,.cls-5{stroke:#fff;stroke-miterlimit:10;}.cls-1,.cls-3,.cls-4,.cls-5{stroke-width:4.14px;}.cls-2{stroke-width:2.07px;}.cls-3,.cls-4{stroke-linecap:round;}.cls-4,.cls-5{fill:none;}</style></defs><title>Skate- deco</title><path class="cls-1" d="M26.56,12.63l-17,46.66L50.2,74.06l37.48.44c3-2,3.12-4.39,2-7,1.49-4,2-7-12-10-3.94-.84-10.47.13-12-1-1.91-1.42-9.82-10.72-9.82-10.72l7.23-19.86Z"/><path class="cls-1" d="M18.22,39.89c9,1.7,14,10.4,9.84,17-.44.72.84,1.56,1.29.84,4.7-7.54-.91-17.29-11.09-19.22C17.29,38.37,17.24,39.71,18.22,39.89Z"/><path class="cls-1" d="M67,58.88c-.09,2.06-.66,4.07-.75,6.13,0,.59,1.52.76,1.55.16.08-2.06.65-4.07.74-6.13C68.58,58.45,67,58.28,67,58.88Z"/><circle class="cls-2" cx="52.32" cy="38.54" r="1.03"/><circle class="cls-2" cx="50.2" cy="44.38" r="1.03"/><circle class="cls-2" cx="52.67" cy="49.68" r="1.03"/><circle class="cls-2" cx="56.72" cy="54.15" r="1.03"/><line class="cls-3" x1="18.77" y1="35.94" x2="32.5" y2="40.95"/><line class="cls-3" x1="20.69" y1="29.81" x2="34.41" y2="34.81"/><line class="cls-3" x1="22.6" y1="23.67" x2="36.33" y2="28.68"/><path class="cls-4" d="M30.24,49.36a21,21,0,0,1,5.59,1.16c3.61,1.31,10.68,6.77,13.58,7.82,2.55.93,8.79,1.95,11.37.79"/><polyline class="cls-5" points="12.05 52.53 50.19 66.4 89.68 66.5"/></svg>