<svg id="Layer_1" data-name="Layer 1" xmlns="http://www.w3.org/2000/svg" xmlns:xlink="http://www.w3.org/1999/xlink" viewBox="0 0 250 200"><defs><style>.cls-1,.cls-11,.cls-7{fill:none;}.cls-12,.cls-2,.cls-4{fill:#cb202d;}.cls-3,.cls-8{fill:#fff;}.cls-11,.cls-12,.cls-4,.cls-7,.cls-8{stroke:#fff;stroke-width:4.24px;}.cls-11,.cls-12,.cls-4{stroke-linejoin:round;}.cls-5{fill:url(#New_Pattern_2);}.cls-6{fill:url(#New_Pattern_2-3);}.cls-7,.cls-8{stroke-miterlimit:10;}.cls-9{fill:url(#New_Pattern_2-5);}.cls-10{fill:url(#New_Pattern_2-7);}.cls-12{stroke-linecap:round;}</style><pattern id="New_Pattern_2" data-name="New Pattern 2" width="3.08" height="3.08" patternTransform="matrix(-2.12, 0, 0, 2.12, -329.17, -342.38)" patternUnits="userSpaceOnUse" viewBox="0 0 3.08 3.08"><rect class="cls-1" width="3.08" height="3.08"/><rect class="cls-2" width="1.54" height="1.54"/><rect class="cls-3" x="1.54" width="1.54" height="1.54"/><rect class="cls-3" y="1.54" width="1.54" height="1.54"/><rect class="cls-2" x="1.54" y="1.54" width="1.54" height="1.54"/></pattern><pattern id="New_Pattern_2-3" data-name="New Pattern 2" width="3.08" height="3.08" patternTransform="matrix(-2.12, 0, 0, 2.12, -331.67, -341.92)" patternUnits="userSpaceOnUse" viewBox="0 0 3.08 3.08"><rect class="cls-1" width="3.08" height="3.08"/><rect class="cls-2" width="1.54" height="1.54"/><rect class="cls-3" x="1.54" width="1.54" height="1.54"/><rect class="cls-3" y="1.54" width="1.54" height="1.54"/><rect class="cls-2" x="1.54" y="1.54" width="1.54" height="1.54"/></pattern><pattern id="New_Pattern_2-5" data-name="New Pattern 2" width="3.08" height="3.08" patternTransform="matrix(-2.12, 0, 0, 2.12, -327.87, -337.61)" patternUnits="userSpaceOnUse" viewBox="0 0 3.08 3.08"><rect class="cls-1" width="3.08" height="3.08"/><rect class="cls-2" width="1.54" height="1.54"/><rect class="cls-3" x="1.54" width="1.54" height="1.54"/><rect class="cls-3" y="1.54" width="1.54" height="1.54"/><rect class="cls-2" x="1.54" y="1.54" width="1.54" height="1.54"/></pattern><pattern id="New_Pattern_2-7" data-name="New Pattern 2" width="3.08" height="3.08" patternTransform="matrix(-2.12, 0, 0, 2.12, -330.36, -337.15)" patternUnits="userSpaceOnUse" viewBox="0 0 3.08 3.08"><rect class="cls-1" width="3.08" height="3.08"/><rect class="cls-2" width="1.54" height="1.54"/><rect class="cls-3" x="1.54" width="1.54" height="1.54"/><rect class="cls-3" y="1.54" width="1.54" height="1.54"/><rect class="cls-2" x="1.54" y="1.54" width="1.54" height="1.54"/></pattern></defs><title>Skate- deco</title><polygon class="cls-2" points="29.12 122.57 46.01 25.04 205.03 16.61 223.31 21.91 134.66 107.56 29.12 122.57"/><polygon class="cls-4" points="20.17 109.7 20.17 153.97 104.6 189.66 228.26 149.68 230 99.79 149.41 88.42 20.17 109.7"/><polyline class="cls-4" points="75.86 30.68 223.31 21.91 164.56 90.56 149.41 88.42 196.61 23.5"/><polygon class="cls-2" points="126.75 41.66 134.34 47.91 142.82 56.13 123.01 87.92 99.32 84.92 126.75 41.66"/><path class="cls-5" d="M70.74,119.19c-.49-1.57.89-6.09,3.89-10.51S85.94,95.08,90,85s10.07-21.51,10.07-21.51c2.65-.18,6.54,1.23,8,3s4.5,5.12,3.8,12.19-1.56,6.35.1,6.27,16-4.63,16-4.63l-5,7.63-9.07,13.25-6.62,5.57-14.46,8.64-13.14,5H72.86Z"/><path class="cls-6" d="M131.84,48.37c-2.65,9.71.53,15.53,2.95,17.34l5.53-9.13Z"/><path class="cls-4" d="M142.82,56.13c.62,0,3.18,8.61,3.18,9.73s-20.65,36.69-24.91,41.94c-19.86,24.47-45,21.2-46.64,19.87s-3.71-8.48-3.71-8.48.54,1.8,8,1.33c13.87-.89,29.42-12.72,35.25-19.35S142.2,56.13,142.82,56.13Z"/><path class="cls-7" d="M70.74,119.19c-.49-1.57.89-6.09,3.89-10.51S85.94,95.08,90,85s10.07-21.51,10.07-21.51c2.65-.18,6.54,1.23,8,3s4.5,5.12,3.8,12.19-1.56,6.35.1,6.27,16-4.63,16-4.63"/><path class="cls-4" d="M126.75,41.66c3,1.34,3.54,12.61,1.24,15.79s-12.73,14.66-12.73,14.66l-3.67.75-3.48-6.4L101.46,64a.34.34,0,0,1,0-.65c2.18-.41,6.47-2,10.23-8C117,46.85,121.45,39.3,126.75,41.66Z"/><polyline class="cls-7" points="142.82 56.13 134.34 47.91 126.75 41.66"/><line class="cls-8" x1="115.26" y1="72.11" x2="112.01" y2="84.92"/><path class="cls-7" d="M124.81,102.63s-5.74-6.76-12.49.16"/><path class="cls-7" d="M130.72,46.85s-6.35,14,4.86,20.74"/><polygon class="cls-2" points="160.74 46.43 168.33 52.68 176.81 60.9 157 92.69 133.31 89.69 160.74 46.43"/><path class="cls-9" d="M104.73,124c-.49-1.57.89-6.09,3.89-10.51S119.93,99.85,124,89.74s10.07-21.51,10.07-21.51c2.65-.18,6.54,1.23,8,3s4.5,5.12,3.8,12.19-1.56,6.35.1,6.27,16-4.63,16-4.63l-5,7.63-9.07,13.25-6.62,5.57-14.46,8.64-13.14,5h-6.86Z"/><path class="cls-10" d="M165.83,53.14c-2.65,9.71.53,15.53,2.95,17.34l5.53-9.13Z"/><path class="cls-4" d="M176.81,60.9c.62,0,3.18,8.61,3.18,9.73s-20.65,36.69-24.91,41.94C135.22,137,110,133.77,108.44,132.44s-3.71-8.48-3.71-8.48.54,1.8,8,1.33c13.87-.89,29.42-12.72,35.25-19.35S176.19,60.9,176.81,60.9Z"/><path class="cls-7" d="M104.73,124c-.49-1.57.89-6.09,3.89-10.51S119.93,99.85,124,89.74s10.07-21.51,10.07-21.51c2.65-.18,6.54,1.23,8,3s4.5,5.12,3.8,12.19-1.56,6.35.1,6.27,16-4.63,16-4.63"/><path class="cls-4" d="M160.73,46.43c3,1.34,3.55,12.61,1.25,15.79s-12.73,14.66-12.73,14.66l-3.67.74-3.48-6.39-6.65-2.49a.34.34,0,0,1,0-.65c2.18-.41,6.47-2,10.23-8C151,51.62,155.44,44.07,160.73,46.43Z"/><polyline class="cls-7" points="176.81 60.9 168.33 52.68 160.74 46.43"/><line class="cls-8" x1="149.25" y1="76.88" x2="146" y2="89.69"/><path class="cls-7" d="M158.8,107.4s-5.74-6.76-12.49.16"/><path class="cls-7" d="M164.71,51.62s-6.35,14,4.86,20.74"/><polygon class="cls-2" points="228.26 149.68 104.73 190.97 20.17 153.97 20.17 109.7 104.6 125.36 230 99.79 228.26 149.68"/><polygon class="cls-4" points="20 109.29 46.01 25.04 75.86 30.68 43.61 113.76 20 109.29"/><polyline class="cls-11" points="46.01 25.04 205.03 16.61 223.31 21.91"/><path class="cls-3" d="M211.75,130.49,206,131.85c-.56-1.13-1.19-2-4.43-1.21-2.25.52-3.21,1.57-3.21,2.4s.8,1.48,3.27,1.39h5.24c3.43,0,5.1,2,5.1,4.52a7.49,7.49,0,0,1-1.87,5c-1.13,1.33-2.85,3.15-8.54,4.61-7.83,2-10.41-1.82-10.41-4.53l6.09-1.5c.6,1.81,2.1,2.18,5.07,1.44,2.05-.51,3.82-1.61,3.82-3s-1.28-1.52-2.93-1.52H199c-2-.06-3.66-.09-4.84-.71-3.08-1.62-2.86-6,.49-8.94a14.07,14.07,0,0,1,6.79-3.4c3.55-.8,5.57-.37,7.17.25,1.42.52,3.1,2.22,3.1,3.86M114,136.74c0,.2,12.11,30.86,12.11,30.86l7.2-1.85,11.09-29.88,68.88-15.28.52-5.28-74.68,16-9.2,24.81-8.27-21.05L114,136.73m59.53,7.46,9,9,5.63-1.44V129.86l-6.48,1.47v12l-8.14-10.13-6.21,1.41V157l6.21-1.59ZM214,144a1.18,1.18,0,0,0-.9,1c0,.44.42.69.92.56a1.2,1.2,0,0,0,.9-1c0-.43-.41-.68-.9-.56h0Zm-.15,0a.9.9,0,0,1-1.16.17c-.28-.25-.21-.72.15-1.06A.9.9,0,0,1,214,143c.27.24.22.68-.11,1v0Zm-.52-.1c0-.22-.2-.34-.46-.28l-.07,0-.6.15V145l.3-.08v-.38l.24-.06.29.31.35-.09-.32-.35a.52.52,0,0,0,.29-.45Zm-.3.08a.26.26,0,0,1-.2.23l-.33.08V144l.29-.07c.11,0,.22,0,.25.06V144Zm-73.79,20.23,6.91-1.77,1.28-3.93,9.14-2.3,1.32,3.22,6.8-1.74L156,137.15l-7.32,1.66Zm10.13-10.34,2.69-8.28,2.62,7-5.31,1.31Z"/><polyline class="cls-11" points="104.6 189.66 228.26 149.68 230 99.79 104.6 125.36 104.6 189.66 20.17 153.97 20 109.29 104.6 125.36"/><path class="cls-12" d="M79.59,72.36a16,16,0,0,0-15.24,16,16,16,0,0,0-15.2-16,16,16,0,0,0,15.2-16A16,16,0,0,0,79.59,72.36Z"/><path class="cls-12" d="M150.44,25A16,16,0,0,0,135.2,41,16,16,0,0,0,120,25,16,16,0,0,0,135.2,9,16,16,0,0,0,150.44,25Z"/><path class="cls-12" d="M213.42,86.49a16,16,0,0,0-15.25,16,16,16,0,0,0-15.2-16,16,16,0,0,0,15.2-16A16,16,0,0,0,213.42,86.49Z"/><line class="cls-12" x1="75.86" y1="48.89" x2="86.58" y2="57.22"/><line class="cls-12" x1="89.49" y1="41.04" x2="96.12" y2="51.62"/><line class="cls-12" x1="101.23" y1="35.58" x2="106.72" y2="48.37"/></svg>