<svg id="Layer_1" data-name="Layer 1" xmlns="http://www.w3.org/2000/svg" viewBox="0 0 100 100"><defs><style>.cls-1,.cls-2,.cls-4,.cls-5{fill:#cb202d;}.cls-2,.cls-3,.cls-4,.cls-5,.cls-6{stroke:#fff;stroke-miterlimit:10;}.cls-2,.cls-3{stroke-linecap:round;}.cls-2,.cls-3,.cls-4,.cls-6{stroke-width:4.14px;}.cls-3,.cls-6{fill:none;}.cls-5{stroke-width:2.07px;}</style></defs><title>Skate- deco</title><path class="cls-1" d="M8.93,25.36V75l48.75-1.11L87.86,75c3.48,0,2.1-7.55-1.08-8.06,0-4.26-.42-9.8-14.24-10.69s-24.75-9.76-24.75-9.76V25.36Z"/><path class="cls-2" d="M8.93,63.77V74.64H30.8a167.67,167.67,0,0,1,26.59-2c10.21,0,16,1.54,21.4,2,2.26.2,9.07,0,9.07,0,3.48,0,4-6.21,2.11-8.28"/><polyline class="cls-2" points="32.49 25 8.93 25 8.93 55.62"/><path class="cls-3" d="M72.54,55.89C58.72,55,47.79,46.14,47.79,46.14v-8"/><path class="cls-4" d="M10.4,53.47c9-1.46,16.7,5,15.08,12.65-.18.83,1.32,1.19,1.5.35,1.83-8.69-6.77-15.93-17-14.27C9,52.36,9.42,53.63,10.4,53.47Z"/><circle class="cls-5" cx="41.99" cy="40.54" r="1.03"/><circle class="cls-5" cx="46.13" cy="50.89" r="1.03"/><circle class="cls-5" cx="51.45" cy="53.71" r="1.03"/><line class="cls-2" x1="8.98" y1="50.18" x2="23.25" y2="47.07"/><line class="cls-2" x1="11.21" y1="41.31" x2="21.02" y2="41.85"/><line class="cls-2" x1="9.7" y1="36.16" x2="24.05" y2="33.44"/><path class="cls-3" d="M41.55,59.45a25,25,0,0,0,4.47.7"/><path class="cls-3" d="M24.94,58.25a21.43,21.43,0,0,1,5.64-.82,33,33,0,0,1,6.08.93"/><path class="cls-4" d="M9,67.45H55.23a59.24,59.24,0,0,0,7,.84C64,68.23,67.57,67,69.39,67a56.43,56.43,0,0,1,5.82.5H90"/><path class="cls-6" d="M52.19,67.45s.07-4.78,1.17-5.43,5.23-1.68,7-1,6.27,1.22,7.89.84-2.11-1-.56-3.47c.67-1,4.87-2.47,4.87-2.47"/><path class="cls-3" d="M69.16,57.9c2.31,0,14.58-3.28,17,1.55,1.35,2.72,1.17,7.46-8.09,8"/><path class="cls-2" d="M12.44,53.71s-1,13.74,11.61,13.74"/><path class="cls-3" d="M47.79,38.7s3.84-16.65,11.43-8.89,3.14,11.77,3.14,11.77"/></svg>