<svg id="Layer_1" data-name="Layer 1" xmlns="http://www.w3.org/2000/svg" viewBox="0 0 100 100"><defs><style>.cls-1,.cls-2,.cls-3{fill:#cb202d;}.cls-1,.cls-2,.cls-3,.cls-4,.cls-5{stroke:#fff;stroke-miterlimit:10;}.cls-1,.cls-3,.cls-4,.cls-5{stroke-width:4.14px;}.cls-2{stroke-width:2.07px;}.cls-3,.cls-4{stroke-linecap:round;}.cls-4,.cls-5{fill:none;}</style></defs><title>Skate- deco</title><path class="cls-1" d="M8.93,25.18V74.82H87.86c3.48,0,4-6.21,2.11-8.28,0-4.26-3.61-9.58-17.43-10.47s-24.75-9.76-24.75-9.76V25.18Z"/><path class="cls-1" d="M10.4,53.65c9-1.46,16.7,5,15.08,12.65-.18.83,1.32,1.18,1.5.35C28.81,58,20.21,50.72,10,52.38,9,52.53,9.42,53.81,10.4,53.65Z"/><path class="cls-1" d="M64.31,55.36c.12,1.55-.23,3.09-.1,4.63,0,.45,1.59.45,1.55,0-.13-1.54.23-3.08.1-4.63C65.82,54.92,64.27,54.92,64.31,55.36Z"/><circle class="cls-2" cx="41.99" cy="40.72" r="1.03"/><circle class="cls-2" cx="46.13" cy="51.07" r="1.03"/><circle class="cls-2" cx="51.45" cy="53.89" r="1.03"/><line class="cls-3" x1="8.98" y1="50.36" x2="23.25" y2="47.25"/><line class="cls-3" x1="11.21" y1="41.49" x2="21.02" y2="42.03"/><line class="cls-3" x1="9.7" y1="36.34" x2="24.05" y2="33.62"/><path class="cls-4" d="M41.55,59.63a25,25,0,0,0,4.47.7"/><path class="cls-4" d="M24.94,58.43a21.43,21.43,0,0,1,5.64-.82,33,33,0,0,1,6.08.93"/><path class="cls-1" d="M9,67.63H55.23a59.24,59.24,0,0,0,7,.84c1.82-.06,5.35-1.25,7.17-1.34a53.69,53.69,0,0,1,5.82.5H90"/><path class="cls-5" d="M52.19,67.63s.07-4.78,1.17-5.43,5.23-1.68,7-1,6.27,1.23,7.89.85,5.88-1.3,6.73-.39a55,55,0,0,1,3.42,6"/></svg>