<svg id="Layer_1" data-name="Layer 1" xmlns="http://www.w3.org/2000/svg" viewBox="0 0 100 100"><defs><style>.cls-1,.cls-2,.cls-3{fill:#cb202d;}.cls-1,.cls-2,.cls-3,.cls-4{stroke:#fff;stroke-miterlimit:10;}.cls-1,.cls-3,.cls-4{stroke-width:4.14px;}.cls-2{stroke-width:2.07px;}.cls-3,.cls-4{stroke-linecap:round;}.cls-4{fill:none;}</style></defs><title>Skate- deco</title><path class="cls-1" d="M8.93,25.18V74.82H87.86c3.48,0,4-6.21,2.11-8.28,0-4.26-3.61-9.58-17.43-10.47s-24.75-9.76-24.75-9.76V25.18Z"/><path class="cls-1" d="M10.4,53.65c9-1.46,16.7,5,15.08,12.65-.18.83,1.32,1.18,1.5.35C28.81,58,20.21,50.72,10,52.38,9,52.53,9.42,53.81,10.4,53.65Z"/><path class="cls-1" d="M64.31,55.78c.12,3.46-.23,6.93-.1,10.39,0,1,1.59,1,1.55,0-.13-3.46.23-6.93.1-10.39C65.82,54.78,64.27,54.78,64.31,55.78Z"/><circle class="cls-2" cx="41.99" cy="40.72" r="1.03"/><circle class="cls-2" cx="41.99" cy="46.93" r="1.03"/><circle class="cls-2" cx="46.13" cy="51.07" r="1.03"/><circle class="cls-2" cx="51.45" cy="53.89" r="1.03"/><line class="cls-3" x1="9.57" y1="49.74" x2="24.18" y2="49.76"/><line class="cls-3" x1="9.27" y1="43.32" x2="23.88" y2="43.34"/><line class="cls-3" x1="8.97" y1="36.9" x2="23.59" y2="36.92"/><path class="cls-4" d="M24.94,58.43a21.43,21.43,0,0,1,5.64-.82c3.84,0,12.36,2.72,15.44,2.72,2.71,0,8.92-1.18,10.95-3.15"/><line class="cls-1" x1="8.93" y1="67.63" x2="89.91" y2="67.63"/></svg>